<?xml version="1.0" encoding="UTF-8"?><svg xmlns="http://www.w3.org/2000/svg" xmlns:xlink="http://www.w3.org/1999/xlink" fill-opacity="1" color-rendering="auto" color-interpolation="auto" text-rendering="auto" stroke="black" stroke-linecap="square" width="783" stroke-miterlimit="10" shape-rendering="auto" stroke-opacity="1" fill="black" stroke-dasharray="none" font-weight="normal" stroke-width="1" height="792" font-family="'Dialog'" font-style="normal" stroke-linejoin="miter" font-size="12px" stroke-dashoffset="0" image-rendering="auto">
  <!--Generated by ySVG 2.5-->
  <defs id="genericDefs"/>
  <g>
    <defs id="defs1">
      <clipPath clipPathUnits="userSpaceOnUse" id="clipPath1">
        <path d="M0 0 L783 0 L783 792 L0 792 L0 0 Z"/>
      </clipPath>
      <clipPath clipPathUnits="userSpaceOnUse" id="clipPath2">
        <path d="M-330 -67 L453 -67 L453 725 L-330 725 L-330 -67 Z"/>
      </clipPath>
    </defs>
    <g fill="rgb(255,204,0)" text-rendering="geometricPrecision" shape-rendering="geometricPrecision" transform="matrix(1,0,0,1,330,67)" stroke="rgb(255,204,0)">
      <rect x="-165.951" width="347.602" height="71.6" y="143.975" clip-path="url(#clipPath2)" stroke="none"/>
    </g>
    <g text-rendering="geometricPrecision" stroke-miterlimit="1.45" shape-rendering="geometricPrecision" transform="matrix(1,0,0,1,330,67)" stroke-linecap="butt">
      <rect fill="none" x="-165.951" width="347.602" height="71.6" y="143.975" clip-path="url(#clipPath2)"/>
      <text x="-23.1695" xml:space="preserve" y="184.4889" clip-path="url(#clipPath2)" font-family="sans-serif" stroke="none">Component</text>
    </g>
    <g fill="rgb(255,204,0)" text-rendering="geometricPrecision" shape-rendering="geometricPrecision" transform="matrix(1,0,0,1,330,67)" stroke="rgb(255,204,0)">
      <circle r="25" clip-path="url(#clipPath2)" cx="-244.0725" cy="179.775" stroke="none"/>
    </g>
    <g text-rendering="geometricPrecision" stroke-miterlimit="1.45" shape-rendering="geometricPrecision" transform="matrix(1,0,0,1,330,67)" stroke-linecap="butt">
      <circle fill="none" r="25" clip-path="url(#clipPath2)" cx="-244.0725" cy="179.775"/>
      <text x="-258.4163" xml:space="preserve" y="184.4889" clip-path="url(#clipPath2)" font-family="sans-serif" stroke="none">Node</text>
    </g>
    <g fill="rgb(255,204,0)" text-rendering="geometricPrecision" shape-rendering="geometricPrecision" transform="matrix(1,0,0,1,330,67)" stroke="rgb(255,204,0)">
      <circle r="25" clip-path="url(#clipPath2)" cx="259.7725" cy="179.775" stroke="none"/>
    </g>
    <g text-rendering="geometricPrecision" stroke-miterlimit="1.45" shape-rendering="geometricPrecision" transform="matrix(1,0,0,1,330,67)" stroke-linecap="butt">
      <circle fill="none" r="25" clip-path="url(#clipPath2)" cx="259.7725" cy="179.775"/>
      <text x="245.4288" xml:space="preserve" y="184.4889" clip-path="url(#clipPath2)" font-family="sans-serif" stroke="none">Node</text>
    </g>
    <g fill="rgb(153,204,0)" text-rendering="geometricPrecision" shape-rendering="geometricPrecision" transform="matrix(1,0,0,1,330,67)" stroke="rgb(153,204,0)">
      <circle r="20" clip-path="url(#clipPath2)" cx="-244.0725" cy="326.4585" stroke="none"/>
    </g>
    <g text-rendering="geometricPrecision" stroke-miterlimit="1.45" shape-rendering="geometricPrecision" transform="matrix(1,0,0,1,330,67)" stroke-linecap="butt">
      <circle fill="none" r="20" clip-path="url(#clipPath2)" cx="-244.0725" cy="326.4585"/>
      <text x="-261.4133" xml:space="preserve" y="331.1724" clip-path="url(#clipPath2)" font-family="sans-serif" stroke="none">Vertex</text>
    </g>
    <g fill="rgb(153,204,0)" text-rendering="geometricPrecision" shape-rendering="geometricPrecision" transform="matrix(1,0,0,1,330,67)" stroke="rgb(153,204,0)">
      <circle r="20" clip-path="url(#clipPath2)" cx="259.7725" cy="326.4585" stroke="none"/>
    </g>
    <g text-rendering="geometricPrecision" stroke-miterlimit="1.45" shape-rendering="geometricPrecision" transform="matrix(1,0,0,1,330,67)" stroke-linecap="butt">
      <circle fill="none" r="20" clip-path="url(#clipPath2)" cx="259.7725" cy="326.4585"/>
      <text x="242.4317" xml:space="preserve" y="331.1724" clip-path="url(#clipPath2)" font-family="sans-serif" stroke="none">Vertex</text>
    </g>
    <g fill="rgb(153,204,0)" text-rendering="geometricPrecision" shape-rendering="geometricPrecision" transform="matrix(1,0,0,1,330,67)" stroke="rgb(153,204,0)">
      <rect x="-155.1272" width="74.032" height="30" y="311.4585" clip-path="url(#clipPath2)" stroke="none"/>
    </g>
    <g text-rendering="geometricPrecision" stroke-miterlimit="1.45" shape-rendering="geometricPrecision" transform="matrix(1,0,0,1,330,67)" stroke-linecap="butt">
      <rect fill="none" x="-155.1272" width="74.032" height="30" y="311.4585" clip-path="url(#clipPath2)"/>
      <text x="-132.1239" xml:space="preserve" y="331.1724" clip-path="url(#clipPath2)" font-family="sans-serif" stroke="none">Edge</text>
    </g>
    <g fill="rgb(153,204,0)" text-rendering="geometricPrecision" shape-rendering="geometricPrecision" transform="matrix(1,0,0,1,330,67)" stroke="rgb(153,204,0)">
      <rect x="96.7953" width="74.032" height="30" y="311.4585" clip-path="url(#clipPath2)" stroke="none"/>
    </g>
    <g text-rendering="geometricPrecision" stroke-miterlimit="1.45" shape-rendering="geometricPrecision" transform="matrix(1,0,0,1,330,67)" stroke-linecap="butt">
      <rect fill="none" x="96.7953" width="74.032" height="30" y="311.4585" clip-path="url(#clipPath2)"/>
      <text x="119.7986" xml:space="preserve" y="331.1724" clip-path="url(#clipPath2)" font-family="sans-serif" stroke="none">Edge</text>
    </g>
    <g fill="rgb(153,204,0)" text-rendering="geometricPrecision" shape-rendering="geometricPrecision" transform="matrix(1,0,0,1,330,67)" stroke="rgb(153,204,0)">
      <circle r="20" clip-path="url(#clipPath2)" cx="7.85" cy="326.4585" stroke="none"/>
    </g>
    <g text-rendering="geometricPrecision" stroke-miterlimit="1.45" shape-rendering="geometricPrecision" transform="matrix(1,0,0,1,330,67)" stroke-linecap="butt">
      <circle fill="none" r="20" clip-path="url(#clipPath2)" cx="7.85" cy="326.4585"/>
      <text x="-9.4908" xml:space="preserve" y="331.1724" clip-path="url(#clipPath2)" font-family="sans-serif" stroke="none">Vertex</text>
      <path fill="none" d="M-219.0725 179.775 L-173.951 179.775" clip-path="url(#clipPath2)"/>
      <path d="M-165.951 179.775 L-177.951 174.775 L-174.951 179.775 L-177.951 184.775 Z" clip-path="url(#clipPath2)" stroke="none"/>
      <text x="-205.8565" xml:space="preserve" y="214.4889" clip-path="url(#clipPath2)" font-family="sans-serif" stroke="none">Input</text>
      <path fill="none" d="M181.651 179.775 L226.7725 179.775" clip-path="url(#clipPath2)"/>
      <path d="M234.7725 179.775 L222.7725 174.775 L225.7725 179.775 L222.7725 184.775 Z" clip-path="url(#clipPath2)" stroke="none"/>
      <text x="190.2" xml:space="preserve" y="214.4889" clip-path="url(#clipPath2)" font-family="sans-serif" stroke="none">Output</text>
      <path fill="none" stroke-dasharray="6,2" d="M-244.0725 204.775 L-244.0725 298.4585" clip-path="url(#clipPath2)"/>
      <path stroke-dasharray="6,2" d="M-244.0725 306.4585 L-239.0725 294.4585 L-244.0725 297.4585 L-249.0725 294.4585 Z" clip-path="url(#clipPath2)" stroke="none"/>
      <path fill="none" stroke-dasharray="6,2" d="M259.7725 204.775 L259.7725 298.4585" clip-path="url(#clipPath2)"/>
      <path stroke-dasharray="6,2" d="M259.7725 306.4585 L264.7725 294.4585 L259.7725 297.4585 L254.7725 294.4585 Z" clip-path="url(#clipPath2)" stroke="none"/>
      <path fill="none" d="M-224.0725 326.4585 L-181.0919 326.4585 L-181.0919 326.4585 L-163.1272 326.4585" clip-path="url(#clipPath2)"/>
      <path d="M-155.1272 326.4585 L-167.1272 321.4585 L-164.1272 326.4585 L-167.1272 331.4585 Z" clip-path="url(#clipPath2)" stroke="none"/>
      <path fill="none" stroke-dasharray="6,2" d="M-118.1113 215.5506 L-118.1113 303.4585" clip-path="url(#clipPath2)"/>
      <path stroke-dasharray="6,2" d="M-118.1113 311.4585 L-113.1113 299.4585 L-118.1113 302.4585 L-123.1113 299.4585 Z" clip-path="url(#clipPath2)" stroke="none"/>
      <path fill="none" stroke-dasharray="6,2" d="M133.8112 215.5438 L133.8112 303.4643" clip-path="url(#clipPath2)"/>
      <path stroke-dasharray="6,2" d="M133.8112 311.4643 L138.8112 299.4643 L133.8112 302.4643 L128.8112 299.4643 Z" clip-path="url(#clipPath2)" stroke="none"/>
      <path fill="none" d="M170.8273 326.4585 L231.7725 326.4585" clip-path="url(#clipPath2)"/>
      <path d="M239.7725 326.4585 L227.7725 321.4585 L230.7725 326.4585 L227.7725 331.4585 Z" clip-path="url(#clipPath2)" stroke="none"/>
      <path fill="none" d="M-81.0953 326.4585 L-20.15 326.4585" clip-path="url(#clipPath2)"/>
      <path d="M-12.15 326.4585 L-24.15 321.4585 L-21.15 326.4585 L-24.15 331.4585 Z" clip-path="url(#clipPath2)" stroke="none"/>
      <path fill="none" d="M27.85 326.4585 L88.7921 326.4585" clip-path="url(#clipPath2)"/>
      <path d="M96.7921 326.4585 L84.7921 321.4585 L87.7921 326.4585 L84.7921 331.4585 Z" clip-path="url(#clipPath2)" stroke="none"/>
    </g>
    <g fill="rgb(245,245,245)" text-rendering="geometricPrecision" shape-rendering="geometricPrecision" transform="matrix(1,0,0,1,330,67)" stroke="rgb(245,245,245)">
      <rect x="-160.63" y="421.9655" clip-path="url(#clipPath2)" width="336.96" rx="4" ry="4" height="189.4805" stroke="none"/>
      <rect x="-160.63" y="421.9655" clip-path="url(#clipPath2)" fill="rgb(153,153,153)" width="336.96" height="22.3765" stroke="none"/>
    </g>
    <g font-size="15px" stroke-linecap="butt" transform="matrix(1,0,0,1,330,67)" text-rendering="geometricPrecision" font-family="sans-serif" shape-rendering="geometricPrecision" stroke-miterlimit="1.45">
      <text x="80.9609" xml:space="preserve" y="439.0461" clip-path="url(#clipPath2)" stroke="none">Linear system</text>
      <rect x="-160.63" y="421.9655" clip-path="url(#clipPath2)" fill="none" width="336.96" stroke-dasharray="6,2" rx="4" ry="4" height="189.4805"/>
    </g>
    <g fill="rgb(51,204,204)" text-rendering="geometricPrecision" shape-rendering="geometricPrecision" transform="matrix(1,0,0,1,330,67)" stroke="rgb(51,204,204)">
      <rect x="-145.63" width="145.2" height="92.08" y="459.342" clip-path="url(#clipPath2)" stroke="none"/>
    </g>
    <g text-rendering="geometricPrecision" stroke-miterlimit="1.45" shape-rendering="geometricPrecision" transform="matrix(1,0,0,1,330,67)" stroke-linecap="butt">
      <rect fill="none" x="-145.63" width="145.2" height="92.08" y="459.342" clip-path="url(#clipPath2)"/>
      <text x="-116.7146" xml:space="preserve" y="510.0959" clip-path="url(#clipPath2)" font-family="sans-serif" stroke="none">Incidence matrix</text>
    </g>
    <g fill="rgb(51,204,204)" text-rendering="geometricPrecision" shape-rendering="geometricPrecision" transform="matrix(1,0,0,1,330,67)" stroke="rgb(51,204,204)">
      <rect x="16.13" width="145.2" height="92.08" y="459.342" clip-path="url(#clipPath2)" stroke="none"/>
    </g>
    <g text-rendering="geometricPrecision" stroke-miterlimit="1.45" shape-rendering="geometricPrecision" transform="matrix(1,0,0,1,330,67)" stroke-linecap="butt">
      <rect fill="none" x="16.13" width="145.2" height="92.08" y="459.342" clip-path="url(#clipPath2)"/>
      <text x="55.7271" xml:space="preserve" y="510.0959" clip-path="url(#clipPath2)" font-family="sans-serif" stroke="none">Cycle matrix</text>
    </g>
    <g fill="rgb(51,204,204)" text-rendering="geometricPrecision" shape-rendering="geometricPrecision" transform="matrix(1,0,0,1,330,67)" stroke="rgb(51,204,204)">
      <rect x="16.13" width="145.2" height="30" y="566.446" clip-path="url(#clipPath2)" stroke="none"/>
    </g>
    <g text-rendering="geometricPrecision" stroke-miterlimit="1.45" shape-rendering="geometricPrecision" transform="matrix(1,0,0,1,330,67)" stroke-linecap="butt">
      <rect fill="none" x="16.13" width="145.2" height="30" y="566.446" clip-path="url(#clipPath2)"/>
      <text x="30.3677" xml:space="preserve" y="586.1599" clip-path="url(#clipPath2)" font-family="sans-serif" stroke="none">Voltage-source vector</text>
    </g>
    <g fill="rgb(51,204,204)" text-rendering="geometricPrecision" shape-rendering="geometricPrecision" transform="matrix(1,0,0,1,330,67)" stroke="rgb(51,204,204)">
      <rect x="-145.63" width="145.2" height="30" y="566.446" clip-path="url(#clipPath2)" stroke="none"/>
    </g>
    <g text-rendering="geometricPrecision" stroke-miterlimit="1.45" shape-rendering="geometricPrecision" transform="matrix(1,0,0,1,330,67)" stroke-linecap="butt">
      <rect fill="none" x="-145.63" width="145.2" height="30" y="566.446" clip-path="url(#clipPath2)"/>
      <text x="-131.0495" xml:space="preserve" y="586.1599" clip-path="url(#clipPath2)" font-family="sans-serif" stroke="none">Current-source vector</text>
    </g>
    <g fill="silver" text-rendering="geometricPrecision" shape-rendering="geometricPrecision" transform="matrix(1,0,0,1,330,67)" stroke="silver">
      <path d="M337.894 210.6033 L411.926 210.6033 L374.91 282.2034 Z" fill-rule="evenodd" clip-path="url(#clipPath2)" stroke="none"/>
    </g>
    <g text-rendering="geometricPrecision" stroke-miterlimit="1.45" shape-rendering="geometricPrecision" transform="matrix(1,0,0,1,330,67)" stroke-linecap="butt">
      <path fill="none" d="M337.894 210.6033 L411.926 210.6033 L374.91 282.2034 Z" fill-rule="evenodd" clip-path="url(#clipPath2)"/>
      <text x="330.8797" xml:space="preserve" y="251.1172" clip-path="url(#clipPath2)" font-family="sans-serif" stroke="none">build component</text>
    </g>
    <g fill="silver" text-rendering="geometricPrecision" shape-rendering="geometricPrecision" transform="matrix(1,0,0,1,330,67)" stroke="silver">
      <path d="M337.894 371.6866 L411.926 371.6866 L374.91 443.2867 Z" fill-rule="evenodd" clip-path="url(#clipPath2)" stroke="none"/>
    </g>
    <g text-rendering="geometricPrecision" stroke-miterlimit="1.45" shape-rendering="geometricPrecision" transform="matrix(1,0,0,1,330,67)" stroke-linecap="butt">
      <path fill="none" d="M337.894 371.6866 L411.926 371.6866 L374.91 443.2867 Z" fill-rule="evenodd" clip-path="url(#clipPath2)"/>
      <text x="324.8914" xml:space="preserve" y="412.2005" clip-path="url(#clipPath2)" font-family="sans-serif" stroke="none">Depth First Search</text>
    </g>
    <g fill="green" text-rendering="geometricPrecision" shape-rendering="geometricPrecision" transform="matrix(1,0,0,1,330,67)" stroke="green">
      <rect x="-64.75" width="145.2" height="30" y="674.338" clip-path="url(#clipPath2)" stroke="none"/>
    </g>
    <g text-rendering="geometricPrecision" stroke-miterlimit="1.45" shape-rendering="geometricPrecision" transform="matrix(1,0,0,1,330,67)" stroke-linecap="butt">
      <rect fill="none" x="-64.75" width="145.2" height="30" y="674.338" clip-path="url(#clipPath2)"/>
      <text x="-59.1783" y="694.0519" clip-path="url(#clipPath2)" fill="white" font-family="sans-serif" stroke="none" xml:space="preserve">Calculated-current vector</text>
    </g>
    <g fill="silver" text-rendering="geometricPrecision" shape-rendering="geometricPrecision" transform="matrix(1,0,0,1,330,67)" stroke="silver">
      <path d="M337.894 607.3733 L411.926 607.3733 L374.91 678.9733 Z" fill-rule="evenodd" clip-path="url(#clipPath2)" stroke="none"/>
    </g>
    <g text-rendering="geometricPrecision" stroke-miterlimit="1.45" shape-rendering="geometricPrecision" transform="matrix(1,0,0,1,330,67)" stroke-linecap="butt">
      <path fill="none" d="M337.894 607.3733 L411.926 607.3733 L374.91 678.9733 Z" fill-rule="evenodd" clip-path="url(#clipPath2)"/>
      <text x="319.2137" xml:space="preserve" y="647.8872" clip-path="url(#clipPath2)" font-family="sans-serif" stroke="none">Gaussian elimination</text>
    </g>
    <g fill="rgb(255,153,204)" text-rendering="geometricPrecision" shape-rendering="geometricPrecision" transform="matrix(1,0,0,1,330,67)" stroke="rgb(255,153,204)">
      <rect x="-269.0725" width="553.845" height="106" y="-46.9085" clip-path="url(#clipPath2)" stroke="none"/>
    </g>
    <g text-rendering="geometricPrecision" stroke-miterlimit="1.45" shape-rendering="geometricPrecision" transform="matrix(1,0,0,1,330,67)" stroke-linecap="butt">
      <rect fill="none" x="-269.0725" width="553.845" height="106" y="-46.9085" clip-path="url(#clipPath2)"/>
      <text x="-17.8224" font-size="14px" y="11.591" clip-path="url(#clipPath2)" font-family="sans-serif" stroke="none" xml:space="preserve">Network</text>
    </g>
    <g fill="silver" text-rendering="geometricPrecision" shape-rendering="geometricPrecision" transform="matrix(1,0,0,1,330,67)" stroke="silver">
      <path d="M337.894 49.52 L411.926 49.52 L374.91 121.12 Z" fill-rule="evenodd" clip-path="url(#clipPath2)" stroke="none"/>
    </g>
    <g text-rendering="geometricPrecision" stroke-miterlimit="1.45" shape-rendering="geometricPrecision" transform="matrix(1,0,0,1,330,67)" stroke-linecap="butt">
      <path fill="none" d="M337.894 49.52 L411.926 49.52 L374.91 121.12 Z" fill-rule="evenodd" clip-path="url(#clipPath2)"/>
      <text x="333.5457" xml:space="preserve" y="90.0339" clip-path="url(#clipPath2)" font-family="sans-serif" stroke="none">add component</text>
    </g>
    <g text-rendering="geometricPrecision" stroke-miterlimit="1.45" shape-rendering="geometricPrecision" transform="matrix(1,0,0,1,330,67)" stroke-linecap="butt">
      <path fill="none" d="M373.41 282.2302 L373.41 359.5273 L373.41 359.5273 L368.66 356.6773 L374.91 371.6773 L381.16 356.6773 L376.41 359.5273 L376.41 359.5273 L376.41 282.2302 Z" clip-path="url(#clipPath2)"/>
    </g>
    <g text-rendering="geometricPrecision" stroke-miterlimit="1.45" shape-rendering="geometricPrecision" transform="matrix(1,0,0,1,330,67)" stroke-linecap="butt">
      <path fill="none" d="M-311.0763 105.4333 L-311.0763 106.9333 L-311.0763 689.338 L-311.0763 690.838 L-64.75 690.838 L-64.75 687.838 L-308.0763 687.838 L-308.0763 108.4333 L6.35 108.4333 L6.35 131.825 L6.35 131.825 L1.6 128.975 L7.85 143.975 L14.1 128.975 L9.35 131.825 L9.35 131.825 L9.35 106.9333 L9.35 105.4333 Z" clip-path="url(#clipPath2)"/>
    </g>
    <g text-rendering="geometricPrecision" stroke-miterlimit="1.45" shape-rendering="geometricPrecision" transform="matrix(1,0,0,1,330,67)" stroke-linecap="butt">
      <path fill="none" d="M373.41 443.3058 L373.41 595.256 L373.41 595.256 L368.66 592.406 L374.91 607.406 L381.16 592.406 L376.41 595.256 L376.41 595.256 L376.41 443.3058 Z" clip-path="url(#clipPath2)"/>
    </g>
    <g text-rendering="geometricPrecision" stroke-miterlimit="1.45" shape-rendering="geometricPrecision" transform="matrix(1,0,0,1,330,67)" stroke-linecap="butt">
      <path fill="none" d="M373.41 121.1469 L373.41 198.4439 L368.66 195.5939 L374.91 210.5939 L381.16 195.5939 L376.41 198.4439 L376.41 121.1469 Z" clip-path="url(#clipPath2)"/>
    </g>
  </g>
</svg>
